Coordinates
version=1
nRows=9
nColumns=36
inDegrees=yes

Units are S.I. units (second, meters, Newtons, ...)
If the header above contains a line with 'inDegrees', this indicates whether rotational values are in degrees (yes) or radians (no).

endheader
time	pelvis_tilt	pelvis_list	pelvis_rotation	pelvis_tx	pelvis_ty	pelvis_tz	hip_flexion_r	hip_adduction_r	hip_rotation_r	knee_angle_r	knee_angle_r_beta	ankle_angle_r	subtalar_angle_r	mtp_angle_r	hip_flexion_l	hip_adduction_l	hip_rotation_l	knee_angle_l	knee_angle_l_beta	ankle_angle_l	subtalar_angle_l	mtp_angle_l	lumbar_extension	lumbar_bending	lumbar_rotation	arm_flex_r	arm_add_r	arm_rot_r	elbow_flex_r	pro_sup_r	arm_flex_l	arm_add_l	arm_rot_l	elbow_flex_l	pro_sup_l
      6.81666670	      4.50339958	     11.99731551	      4.62783334	      0.31117388	      0.85953213	      0.28208358	     21.54818055	     -6.10414115	     -9.38815086	     48.82601253	      0.85217468	     21.52644345	     -8.63568254	     -7.49999987	     40.14212121	     11.29912228	     -5.11520889	     20.15901120	      0.35184112	    -15.93111912	    -10.90284258	     -7.49999987	    -24.73964799	     -4.21791493	      4.50423548	     85.91117326	      1.29407382	     71.21367478	    145.15002105	    106.05250787	     93.30077053	     12.55604406	     77.87362993	     85.78909352	     93.40437516
      6.83333330	      3.19620222	     12.61260055	      4.92804021	      0.31273468	      0.84833190	      0.28142598	     25.15088622	     -6.88275429	     -8.29558306	     52.67601775	      0.91936995	     22.31721425	     -9.79801640	     -7.49999987	     42.35116159	     11.94815926	     -5.59288655	     21.21609524	      0.37029072	    -15.71106341	    -11.36407780	     -7.49999987	    -24.36051267	     -5.17302744	      3.35936449	     85.10377560	     -2.34807198	     66.66554447	    130.83847035	    102.66473067	     94.51941794	     12.48428734	     78.05569565	     87.88060722	     92.92861990
      6.85000000	      2.25812646	     13.20248151	      5.23972087	      0.31084096	      0.83909407	      0.28081808	     28.24779307	     -7.47600702	     -7.20768369	     56.20850498	      0.98102348	     23.07729590	    -11.02272313	     -7.49999987	     44.09190484	     12.55183662	     -6.02158511	     22.11806790	      0.38603311	    -15.10504906	    -11.45187119	     -7.49999987	    -23.30229356	     -5.84720666	      0.59814647	     84.14579024	     -1.89641736	     63.36738365	    114.46377417	     95.86310593	     95.20867981	     10.46897238	     78.90456068	     89.02103289	     88.61333671
      6.86666670	      1.82132525	     13.70547587	      5.52600179	      0.31405984	      0.83038799	      0.28072524	     30.24152768	     -8.02621343	     -6.65514397	     59.10839857	      1.03163617	     23.79086121	    -11.64539994	     -7.49999987	     45.01087002	     13.15317402	     -5.92455941	     22.72044380	      0.39654655	    -14.06358607	    -10.97364750	     -7.49999987	    -22.82967000	     -6.35052341	      1.71346399	     85.06854242	     -1.90816935	     67.81321039	    125.34239077	     97.00660023	     94.90199610	     11.13307623	     78.81775299	     87.18338671	     88.96398611
      6.88333330	      1.26400232	     14.34388632	      5.87504055	      0.31186333	      0.82147976	      0.27793861	     32.20704993	     -8.69272916	     -5.81231165	     61.80785240	      1.07875053	     24.91263479	    -12.26902817	     -7.49999987	     46.00745552	     13.89967438	     -6.22529586	     22.97277515	      0.40095056	    -13.49533513	    -11.13389452	     -7.49999987	    -21.67938581	     -7.05407207	      0.27740431	     84.00913652	     -2.12963802	     63.83013554	    107.28312002	     96.41615997	     93.55312895	      8.63070419	     77.61312527	     81.73020771	     88.28703024
      6.90000000	      0.84516325	     14.68652176	      6.01038540	      0.31105402	      0.81540075	      0.27803880	     33.84243354	     -8.95418757	     -5.19979259	     64.03198305	      1.11756893	     25.84642067	    -12.64389382	     -7.49999987	     46.67907557	     14.29866154	     -6.15103742	     22.90450353	      0.39975900	    -13.22867203	    -11.13595723	     -7.49999987	    -20.56688566	     -7.44131239	     -2.57367282	     82.71613955	      2.44358770	     59.75465489	     82.50239653	     92.54542082	     92.42441655	      5.83056098	     77.29337221	     80.89910843	     84.77472235
      6.91666670	      0.89191944	     15.06461448	      5.98962890	      0.31077089	      0.80521684	      0.27779161	     35.22876892	     -9.19152178	     -4.54863198	     66.49504158	      1.16055741	     26.98893963	    -13.28907466	     -7.49999987	     47.21262922	     14.50356758	     -6.37557259	     23.18632153	      0.40467765	    -12.82528432	    -11.44027637	     -7.49999987	    -20.46318597	     -7.92125195	     -2.37815943	     83.75693468	      4.04746756	     57.87248847	     69.10414550	     92.21592580	     92.35588565	      5.17898219	     75.54884113	     68.59748142	     84.04873706
      6.93333330	      0.29655420	     14.97910302	      6.39250575	      0.31266900	      0.79635335	      0.27737901	     36.68231686	     -9.23094257	     -4.55350711	     68.07315988	      1.18810077	     28.38177165	    -13.16904043	     -7.49999987	     48.32083494	     14.62730259	     -5.86604225	     23.48402803	      0.40987361	    -12.94055340	    -11.62920666	     -7.49999987	    -18.83231833	     -7.56579548	     -1.72437325	     83.63147206	      6.36769202	     56.06622505	     54.75432615	     91.76095287	     90.58569312	      5.98443168	     73.97360481	     56.72562228	     82.74442452
      6.95000000	     -0.52484738	     14.82440801	      6.61873018	      0.30958371	      0.78557276	      0.27585484	     38.97072429	     -9.13846217	     -4.34450158	     70.37413891	      1.22826043	     30.33024380	    -13.32737421	     -7.49999987	     49.98733926	     14.49864279	     -5.72565956	     23.94828516	      0.41797643	    -13.45188348	    -12.56731584	     -7.49999987	    -17.77209537	     -7.05822504	     -2.15155317	     84.48845812	      8.90315288	     55.78263822	     45.62445381	     90.19931434	     90.55403918	      5.64114050	     73.23555189	     51.94448013	     76.87590965
